# AST/ASF file generated using VICON BodyLanguage
# -----------------------------------------------
:version 1.10
:name VICON
:units
  mass 1.0
  length 0.45
  angle deg
:documentation
   .ast/.asf automatically generated from VICON data using
   VICON BodyBuilder and BodyLanguage model FoxedUp or BRILLIANT.MOD
:root
   order TX TY TZ RX RY RZ
   axis XYZ
   position 0 0 0  
   orientation 0 0 0 
:bonedata
  begin
     id 1 
     name lhipjoint
     direction 0.560651 -0.75055 0.34978 
     length 2.44936 
     axis 0 0 0  XYZ
  end
  begin
     id 2 
     name lfemur
     direction 0.34202 -0.939693 0  
     length 7.42139  
     axis 0 0 20  XYZ
    dof rx ry rz
    limits (-160.0 20.0)
           (-70.0 70.0)
           (-60.0 70.0)
  end
  begin
     id 3 
     name ltibia
     direction 0.34202 -0.939693 0   
     length 7.75674   
     axis 0 0 20   XYZ
    dof rx
    limits (-10.0 170.0)
  end
  begin
     id 4 
     name lfoot
     direction 0.0925879 -0.254383 0.962661   
     length 2.38688   
     axis -90 7.62852e-016 20   XYZ
    dof rx rz
    limits (-45.0 90.0)
           (-70.0 20.0)
  end
  begin
     id 5 
     name ltoes
     direction 1.53567e-011 -4.21973e-011 1   
     length 1.19228   
     axis -90 7.62852e-016 20   XYZ
    dof rx
    limits (-90.0 20.0)
  end
  begin
     id 6 
     name rhipjoint
     direction -0.540087 -0.762838 0.355506   
     length 2.4099  
     axis 0 0 0  XYZ 
  end
  begin
     id 7 
     name rfemur
     direction -0.34202 -0.939693 0   
     length 7.70794   
     axis 0 0 -20   XYZ
    dof rx ry rz
    limits (-160.0 20.0)
           (-70.0 70.0)
           (-70.0 60.0)
  end
  begin
     id 8 
     name rtibia
     direction -0.34202 -0.939693 0   
     length 7.66106   
     axis 0 0 -20   XYZ
    dof rx
    limits (-10.0 170.0)
 end
 begin
     id 9 
     name rfoot
     direction -0.0830975 -0.228308 0.970036   
     length 2.4989  
     axis -90 -7.62852e-016 -20   XYZ
    dof rx rz
    limits (-45.0 90.0)
           (-20.0 70.0)
  end
  begin
     id 10 
     name rtoes
     direction -1.53517e-011 -4.21842e-011 1   
     length 1.2498   
     axis -90 -7.62852e-016 -20   XYZ
    dof rx
    limits (-90.0 20.0)
  end
  begin
     id 11 
     name lowerback
     direction 0.0266356 0.99402 -0.105896   
     length 2.1545   
     axis 0 0 0   XYZ
    dof rx ry rz
    limits (-20.0 45.0)
           (-30.0 30.0)
           (-30.0 30.0)
  end
  begin
     id 12 
     name upperback
     direction 0.0130547 0.999192 0.0380027   
     length 2.1434   
     axis 0 0 0   XYZ
    dof rx ry rz
    limits (-20.0 45.0)
           (-30.0 30.0)
           (-30.0 30.0)
  end
  begin
     id 13 
     name thorax
     direction 0.000590299 0.996288 0.0860764   
     length 2.19049   
     axis 0 0 0   XYZ
    dof rx ry rz
    limits (-20.0 45.0)
           (-30.0 30.0)
           (-30.0 30.0)
  end
  begin
     id 14 
     name lowerneck
     direction -0.0432125 0.978219 0.203028   
     length 1.62441   
     axis 0 0 0   XYZ
    dof rx ry rz
    limits (-20.0 45.0)
           (-30.0 30.0)
           (-30.0 30.0)
  end
  begin
     id 15 
     name upperneck
     direction -0.0192309 0.991699 -0.127138   
     length 1.66666   
     axis 0 0 0   XYZ
    dof rx ry rz
    limits (-20.0 45.0)
           (-30.0 30.0)
           (-30.0 30.0)
  end
  begin
     id 16
     name head
     direction -0.00434499 0.997882 -0.0649107  
     length 1.67142  
     axis 0 0 0   XYZ
    dof rx ry rz
    limits (-20.0 45.0)
           (-30.0 30.0)
           (-30.0 30.0)
  end
  begin
     id 17 
     name lclavicle
     direction 0.970351 0.240904 -0.0196058  
     length 4.04862  
     axis 0 0 0   XYZ
    dof ry rz
    limits (-20.0 10.0)
           (0.0 20.0)
  end
  begin
     id 18 
     name lhumerus
     direction 1 -4.4896e-011 -1.40911e-018   
     length 5.58345   
     axis 180 -30 -90   XYZ
    dof rx ry rz
    limits (-60.0 90.0)
           (-90.0 90.0)
           (-90.0 90.0)
  end
  begin
     id 19
     name lradius
     direction 1 -4.48968e-011 5.88912e-028   
     length 3.71087   
     axis 180 -30 -90   XYZ
    dof rx
    limits (-10.0 170.0)
  end
  begin
     id 20
     name lwrist
     direction 1 -4.48955e-011 -8.83775e-028   
     length 1.85544   
     axis 5.52448e-016 90 90   XYZ
    dof ry
    limits (-180.0 0.0)
 end
  begin
     id 21 
     name lhand
     direction 1 -4.49035e-011 -1.76755e-027   
     length 0.562322   
     axis 1.12785e-015 90 90   XYZ
    dof rx rz
    limits (-90.0 90.0)
           (-45.0 45.0)
  end
  begin
     id 22 
     name lfingers
     direction 1 -4.48824e-011 -3.5351e-027   
     length 0.453359   
     axis 2.2557e-015 90 90   XYZ
    dof rx
    limits (0.0 90.0)
  end
  begin
     id 23
     name lthumb
     direction 0.707107 -6.34888e-011 0.707107   
     length 0.650935   
     axis -90 45 2.85299e-015   XYZ
    dof rx rz
    limits (-45.0 45.0)
           (-45.0 45.0)
  end
  begin
     id 24 
     name rclavicle
     direction -0.96165 0.268562 -0.0557131   
     length 4.05446  
     axis 0 0 0   XYZ 
    dof ry rz
    limits (-10.0 20.0)
           (-20.0 0.0)
  end
  begin
     id 25 
     name rhumerus
     direction -1 -4.48957e-011 -3.36329e-027  
     length 5.20357   
     axis 180 30 90   XYZ
    dof rx ry rz
    limits (-90.0 60.0)
           (-90.0 90.0)
           (-90.0 90.0)
  end
  begin
     id 26 
     name rradius
     direction -1 -4.48974e-011 4.51441e-027   
     length 3.64937   
     axis 180 30 90   XYZ
    dof rx
    limits (-10.0 170.0)
  end
  begin
     id 27 
     name rwrist
     direction -1 -4.4896e-011 -8.83775e-028   
     length 1.82468   
     axis 5.52448e-016 -90 -90   XYZ
    dof ry
    limits (-180.0 0.0)
  end
  begin
     id 28
     name rhand
     direction -1 -4.48996e-011 -1.76755e-027   
     length 0.617996   
     axis 1.12785e-015 -90 -90   XYZ
    dof rx rz
    limits (-90.0 90.0)
           (-45.0 45.0)
  end
  begin
     id 29
     name rfingers
     direction -1 -4.48957e-011 -3.5351e-027   
     length 0.498244   
     axis 2.2557e-015 -90 -90   XYZ
    dof rx
    limits (0.0 90.0)
  end
  begin
     id 30
     name rthumb
     direction -0.707107 -6.34931e-011 0.707107   
     length 0.715382   
     axis -90 -45 -2.85299e-015   XYZ
    dof rx rz
    limits (-45.0 45.0)
           (-45.0 45.0)
  end
:hierarchy
  begin
    root lhipjoint rhipjoint lowerback
    lhipjoint lfemur
    lfemur ltibia
    ltibia lfoot
    lfoot ltoes
    rhipjoint rfemur
    rfemur rtibia
    rtibia rfoot
    rfoot rtoes
    lowerback upperback
    upperback thorax
    thorax lowerneck lclavicle rclavicle
    lowerneck upperneck
    upperneck head
    lclavicle lhumerus
    lhumerus lradius
    lradius lwrist
    lwrist lhand lthumb
    lhand lfingers
    rclavicle rhumerus
    rhumerus rradius
    rradius rwrist
    rwrist rhand rthumb
    rhand rfingers
  end

#!OML:ASF H:\ManfredETheater\Project 1\Capture day 2\Session 1\Male1.ASF
:FULLY-SPECIFIED
:DEGREES
49
root -0.114046 17.1463 6.45191 -12.5649 -2.29377 -4.95987
lowerback 10.6042 2.28731 5.85165
upperback -2.401 4.16564 3.68056
thorax -8.3992 1.83157 -0.0991669
lowerneck -23.4376 -1.78709 -2.44938
upperneck 23.6125 -1.03354 -2.01026
head 11.6128 -0.964405 -0.512475
rclavicle 3.50855e-014 -2.66371e-014
rhumerus -29.5299 -2.98934 -83.027
rradius 75.7523
rwrist -0.374898
rhand -35.603 2.43235
rfingers 7.12502
rthumb -8.72668 -27.3673
lclavicle 3.50855e-014 -2.66371e-014
lhumerus -54.7317 7.97535 73.7531
lradius 51.7218
lwrist -15.1949
lhand -20.7035 -4.92526
lfingers 7.12502
lthumb 5.66066 24.9791
rfemur -13.1767 -3.5838 24.7985
rtibia 57.347
rfoot -25.4237 -8.20214
rtoes -8.99645
lfemur -20.0385 0.587163 -18.3706
ltibia 44.4878
lfoot -4.68125 -2.46815
ltoes 2.00924
50
root -0.115172 17.2074 6.65207 -12.181 -2.15052 -4.41427
lowerback 10.315 2.2124 5.23292
upperback -2.45399 3.94916 3.5367
thorax -8.32396 1.75593 0.139319
lowerneck -23.5991 -1.65555 -2.30409
upperneck 23.6094 -0.846051 -2.18259
head 11.6407 -0.890597 -0.571014
rclavicle -2.48481e-015 2.78299e-015
rhumerus -30.0094 -3.88722 -83.2769
rradius 74.3955
rwrist -1.45952
rhand -35.2233 1.77933
rfingers 7.12502
rthumb -8.36026 -28.0352
lclavicle -2.48481e-015 2.78299e-015
lhumerus -53.7293 9.39699 73.3154
lradius 49.6233
lwrist -16.3887
lhand -20.0152 -3.3689
lfingers 7.12502
lthumb 6.32511 26.5167
rfemur -14.008 -3.28765 24.2816
rtibia 55.3847
rfoot -25.7715 -7.93623
rtoes -10.5383
lfemur -19.4419 -0.127584 -19.1125
ltibia 44.0883
lfoot -5.00843 -1.53535
ltoes 1.75005
51
root -0.123339 17.2702 6.85135 -11.7961 -1.85164 -4.11593
lowerback 10.0346 2.06826 4.77931
upperback -2.52395 3.67271 3.45561
thorax -8.26559 1.64374 0.36174
lowerneck -23.775 -1.54758 -2.22693
upperneck 23.6251 -0.690525 -2.26892
head 11.6799 -0.826255 -0.591861
rclavicle 4.67144e-015 -3.02153e-014
rhumerus -30.5189 -4.50146 -83.4976
rradius 73.0675
rwrist -2.9421
rhand -35.215 1.04656
rfingers 7.12502
rthumb -8.35223 -28.7683
lclavicle 4.67144e-015 -3.02153e-014
lhumerus -52.7766 10.5848 73.0807
lradius 47.7806
lwrist -16.4543
lhand -19.2211 -2.04387
lfingers 7.12502
lthumb 7.09176 27.8173
rfemur -14.7348 -3.08899 24.0308
rtibia 53.3253
rfoot -25.9502 -7.35289
rtoes -11.566
lfemur -18.9045 -0.848024 -19.5883
ltibia 43.6956
lfoot -5.23645 -0.822714
ltoes 1.53451
52
root -0.135816 17.333 7.0518 -11.5138 -1.18293 -3.99511
lowerback 9.82327 1.78534 4.42781
upperback -2.6077 3.23432 3.39738
thorax -8.25781 1.44692 0.574742
lowerneck -23.9346 -1.45083 -2.10621
upperneck 23.7005 -0.564105 -2.36475
head 11.7387 -0.773 -0.628741
rclavicle -4.12478e-014 -7.95139e-016
rhumerus -31.0871 -5.08818 -83.627
rradius 71.7358
rwrist -3.87037
rhand -34.8609 0.305353
rfingers 7.12502
rthumb -8.01053 -29.5228
lclavicle -4.12478e-014 -7.95139e-016
lhumerus -51.8772 11.4522 73.0562
lradius 46.1332
lwrist -15.2283
lhand -18.7538 -1.26788
lfingers 7.12502
lthumb 7.54281 28.5776
rfemur -15.1883 -3.139 23.9055
rtibia 51.1969
rfoot -25.9211 -6.65134
rtoes -11.8029
lfemur -18.3124 -1.58314 -19.9109
ltibia 43.3223
lfoot -5.3764 -0.482087
ltoes 1.42367
53
root -0.155047 17.4011 7.24917 -10.9627 -0.71772 -3.75584
lowerback 9.31344 1.60411 3.85559
upperback -2.71788 2.88691 3.33914
thorax -8.10945 1.30809 0.90322
lowerneck -24.1298 -1.34835 -1.99675
upperneck 23.7489 -0.443619 -2.39649
head 11.7942 -0.714631 -0.640725
rclavicle -1.36167e-014 -1.59028e-014
rhumerus -31.5134 -5.38955 -83.7125
rradius 70.2887
rwrist -4.66314
rhand -34.7495 -0.0196547
rfingers 7.12502
rthumb -7.90301 -29.8519
lclavicle -1.36167e-014 -1.59028e-014
lhumerus -51.007 12.0408 73.2482
lradius 44.8914
lwrist -13.2608
lhand -18.5055 -0.161067
lfingers 7.12502
lthumb 7.78244 29.6757
rfemur -15.893 -2.95404 23.727
rtibia 49.1024
rfoot -25.6658 -6.09952
rtoes -11.6384
lfemur -18.0169 -1.91512 -20.2617
ltibia 42.9509
lfoot -5.50864 -0.39271
ltoes 1.18308
54
root -0.178035 17.4683 7.44316 -10.6038 0.0434954 -3.67762
lowerback 9.01656 1.32877 3.41353
upperback -2.79534 2.44814 3.3061
thorax -8.03947 1.11694 1.19193
lowerneck -24.2895 -1.316 -2.02326
upperneck 23.7757 -0.405233 -2.3156
head 11.8353 -0.689975 -0.60124
rclavicle 9.44227e-015 1.59028e-014
rhumerus -32.0109 -5.66679 -83.7103
rradius 68.9681
rwrist -5.20587
rhand -34.4462 -0.425927
rfingers 7.12502
rthumb -7.61024 -30.269
lclavicle 9.44227e-015 1.59028e-014
lhumerus -50.0893 12.3763 73.6381
lradius 43.8322
lwrist -10.9257
lhand -18.2514 0.76117
lfingers 7.12502
lthumb 8.02768 30.5887
rfemur -16.2781 -2.98111 23.6867
rtibia 47.0646
rfoot -24.97 -5.94432
rtoes -11.4412
lfemur -17.5703 -2.28381 -20.4569
ltibia 42.5585
lfoot -5.59413 -0.614728
ltoes 0.738054
55
root -0.202867 17.5406 7.63352 -10.1785 0.802664 -3.55198
lowerback 8.65354 1.06103 2.91103
upperback -2.89077 2.00971 3.24161
thorax -7.94468 0.927842 1.47994
lowerneck -24.378 -1.27532 -1.94597
upperneck 23.741 -0.387591 -2.27409
head 11.8381 -0.669181 -0.595862
rclavicle 9.93923e-017 7.15625e-015
rhumerus -32.5041 -5.80699 -83.7356
rradius 67.586
rwrist -5.47851
rhand -34.4997 0.321715
rfingers 7.12502
rthumb -7.6619 -29.5195
lclavicle 9.93923e-017 7.15625e-015
lhumerus -49.2152 12.5281 74.078
lradius 42.9812
lwrist -8.55935
lhand -17.9872 2.00219
lfingers 7.12502
lthumb 8.28264 31.8198
rfemur -16.671 -2.8822 23.5855
rtibia 45.1797
rfoot -23.5046 -5.82395
rtoes -9.92786
lfemur -17.2002 -2.38976 -20.6596
ltibia 42.137
lfoot -5.53992 -0.989553
ltoes 0.6621
56
root -0.230373 17.6159 7.8225 -9.75021 1.57766 -3.32523
lowerback 8.27244 0.816908 2.27276
upperback -2.96845 1.58889 3.17107
thorax -7.81712 0.753541 1.83231
lowerneck -24.5211 -1.26507 -1.98375
upperneck 23.7362 -0.387047 -2.16091
head 11.8636 -0.657547 -0.548216
rclavicle 5.1684e-015 -1.11319e-014
rhumerus -32.9832 -5.79103 -83.7134
rradius 66.2544
rwrist -5.46971
rhand -34.6485 0.457871
rfingers 7.12502
rthumb -7.80551 -29.378
lclavicle 5.1684e-015 -1.11319e-014
lhumerus -48.5041 12.4585 74.6618
lradius 42.491
lwrist -6.33287
lhand -17.5847 2.8444
lfingers 7.12502
lthumb 8.6711 32.6463
rfemur -16.9754 -2.68913 23.3678
rtibia 43.4376
rfoot -21.5663 -5.57553
rtoes -7.96666
lfemur -16.8271 -2.54362 -20.9508
ltibia 41.7089
lfoot -5.2805 -1.34651
ltoes 1.01109
57
root -0.258653 17.6905 8.00772 -9.29474 2.21555 -3.13725
lowerback 7.89305 0.626447 1.71637
upperback -3.06571 1.25321 3.07971
thorax -7.70381 0.615241 2.10123
lowerneck -24.5373 -1.26517 -1.96192
upperneck 23.6596 -0.427635 -2.056
head 11.8365 -0.658444 -0.518787
rclavicle -1.33186e-014 -1.51076e-014
rhumerus -33.5331 -5.86668 -83.6663
rradius 64.9143
rwrist -4.78917
rhand -34.6606 0.665628
rfingers 7.12502
rthumb -7.81723 -29.1699
lclavicle -1.33186e-014 -1.51076e-014
lhumerus -47.7734 12.1684 75.283
lradius 42.1367
lwrist -4.4999
lhand -17.1197 3.69365
lfingers 7.12502
lthumb 9.11981 33.4765
rfemur -17.2274 -2.37762 23.2006
rtibia 41.832
rfoot -18.9079 -5.29668
rtoes -6.30789
lfemur -16.4895 -2.58611 -21.1453
ltibia 41.2563
lfoot -5.06396 -1.74822
ltoes 0.646552
58
root -0.287983 17.7578 8.18303 -8.88821 2.94871 -3.03891
lowerback 7.66849 0.4246 1.27124
upperback -3.15871 0.923153 2.98504
thorax -7.66911 0.47354 2.30056
lowerneck -24.6527 -1.28945 -1.92372
upperneck 23.6562 -0.503889 -1.95121
head 11.8564 -0.675008 -0.499755
rclavicle -5.76476e-015 -1.59028e-014
rhumerus -34.0718 -5.96609 -83.5951
rradius 63.6474
rwrist -3.99572
rhand -34.554 0.749962
rfingers 7.12502
rthumb -7.71432 -29.0893
lclavicle -5.76476e-015 -1.59028e-014
lhumerus -47.036 11.6297 75.9743
lradius 41.9552
lwrist -3.17936
lhand -16.5562 4.1526
lfingers 7.12502
lthumb 9.66351 33.9109
rfemur -17.3722 -2.0083 23.1123
rtibia 40.3465
rfoot -16.0891 -5.15799
rtoes -5.28883
lfemur -16.1764 -2.69997 -21.2375
ltibia 40.8124
lfoot -4.80382 -2.21549
ltoes 0.394833
59
root -0.311048 17.8275 8.36864 -8.67878 3.46234 -2.92457
lowerback 7.4691 0.282159 0.90657
upperback -3.16556 0.679876 2.87718
thorax -7.55497 0.369223 2.42603
lowerneck -24.686 -1.31161 -1.86476
upperneck 23.6174 -0.584817 -1.85951
head 11.847 -0.692807 -0.488872
rclavicle -5.96354e-016 -6.75868e-015
rhumerus -34.6563 -6.01512 -83.5398
rradius 62.4321
rwrist -3.09743
rhand -34.397 0.64679
rfingers 7.12502
rthumb -7.56275 -29.198
lclavicle -5.96354e-016 -6.75868e-015
lhumerus -46.4395 10.9145 76.6705
lradius 41.9978
lwrist -2.3884
lhand -15.9816 4.52854
lfingers 7.12502
lthumb 10.2179 34.2604
rfemur -17.1501 -1.27272 23.0173
rtibia 38.9414
rfoot -13.1421 -4.62821
rtoes -3.65127
lfemur -15.5589 -2.69647 -21.3263
ltibia 40.3633
lfoot -4.70239 -2.59763
ltoes 0.256016
60
root -0.335475 17.8894 8.55059 -8.46372 4.1102 -2.88264
lowerback 7.28579 0.119457 0.623653
upperback -3.19479 0.421901 2.78337
thorax -7.4712 0.253881 2.52148
lowerneck -24.6181 -1.37071 -1.9001
upperneck 23.5232 -0.695453 -1.73274
head 11.7977 -0.727046 -0.45301
rclavicle 1.68967e-015 -1.86858e-014
rhumerus -35.319 -6.0203 -83.4608
rradius 61.3262
rwrist -2.47129
rhand -34.2403 0.0683393
rfingers 7.12502
rthumb -7.41156 -29.7818
lclavicle 1.68967e-015 -1.86858e-014
lhumerus -45.842 10.0141 77.4637
lradius 42.1806
lwrist -2.11465
lhand -15.0182 4.70669
lfingers 7.12502
lthumb 11.1472 34.3906
rfemur -16.9003 -0.827823 22.977
rtibia 37.6252
rfoot -10.0414 -3.9059
rtoes -2.64643
lfemur -15.0003 -2.79694 -21.3388
ltibia 39.9397
lfoot -4.6079 -3.09548
ltoes -0.643603
